<?xml version="1.0" encoding="UTF-8" standalone="no"?>
<!-- Created with Inkscape (http://www.inkscape.org/) -->

<svg
   width="697.56787"
   height="280.79987"
   viewBox="0 0 184.56483 74.294965"
   version="1.1"
   id="svg5"
   sodipodi:docname="header.svg"
   inkscape:version="1.1.1 (3bf5ae0d25, 2021-09-20)"
   xmlns:inkscape="http://www.inkscape.org/namespaces/inkscape"
   xmlns:sodipodi="http://sodipodi.sourceforge.net/DTD/sodipodi-0.dtd"
   xmlns="http://www.w3.org/2000/svg"
   xmlns:svg="http://www.w3.org/2000/svg">
  <sodipodi:namedview
     id="namedview7"
     pagecolor="#ffffff"
     bordercolor="#111111"
     borderopacity="1"
     inkscape:pageshadow="0"
     inkscape:pageopacity="0"
     inkscape:pagecheckerboard="1"
     inkscape:document-units="px"
     showgrid="false"
     units="px"
     inkscape:zoom="1.5702702"
     inkscape:cx="409.48366"
     inkscape:cy="188.18417"
     inkscape:window-width="1920"
     inkscape:window-height="1016"
     inkscape:window-x="0"
     inkscape:window-y="0"
     inkscape:window-maximized="1"
     inkscape:current-layer="text2595"
     lock-margins="true"
     fit-margin-top="40"
     fit-margin-left="40"
     fit-margin-right="40"
     fit-margin-bottom="40" />
  <defs
     id="defs2" />
  <g
     inkscape:label="Layer 1"
     inkscape:groupmode="layer"
     id="layer1"
     transform="translate(9.2783375,8.1714078)">
    <g
       inkscape:label="Layer 1"
       id="layer1-4"
       transform="matrix(2.0079987,0,0,2.0079987,1.3049958,2.4119211)">
      <circle
         style="fill:#e6e6e6;fill-opacity:1;stroke:none;stroke-width:1.05833;stroke-miterlimit:4;stroke-dasharray:none"
         id="circle2409"
         cx="13.229167"
         cy="13.229167"
         r="12.7" />
      <path
         id="path2025"
         style="fill:#ffffff;stroke:none;stroke-width:0.999999px;stroke-linecap:butt;stroke-linejoin:miter;stroke-opacity:1"
         d="M 11.181641,18.509766 A 50.000001,50.000001 0 0 0 0,50 50.000001,50.000001 0 0 0 50,100 50.000001,50.000001 0 0 0 93.154297,75.234375 C 91.455559,73.541905 89.64651,71.610932 87.751953,69.400391 77.30097,57.206342 64.545671,56.717541 57.001953,52.574219 49.458235,48.430897 41.159278,34.897247 37.191406,28.541016 34.574541,24.348999 20.490328,20.590857 11.181641,18.509766 Z"
         transform="scale(0.26458333)" />
      <circle
         style="fill:none;fill-opacity:1;stroke:#808080;stroke-width:1.05833;stroke-miterlimit:4;stroke-dasharray:none"
         id="path862"
         cx="13.229167"
         cy="13.229167"
         r="12.7" />
      <g
         aria-label="π"
         id="text7337"
         style="font-size:10.5833px;line-height:1.25;font-family:Sawasdee;-inkscape-font-specification:Sawasdee;fill:#808080;stroke-width:0.264583"
         transform="matrix(1.8869938,0.48096034,-0.48096034,1.8869938,-3.6939222,-20.909304)">
        <path
           d="M 15.805205,16.560256 15.667623,16.359174 15.43479,16.53909 c 0.02117,-0.02117 -0.243416,0.222249 -0.433915,0.222249 -0.518582,0 -0.740831,-0.306916 -0.878414,-0.96308 -0.05292,-0.264583 -0.09525,-0.550332 -0.09525,-0.857248 l 0.02117,-2.180159 c 0.253999,0 0.507998,-0.01058 0.751414,-0.04233 0.201083,0 0.423332,-0.105833 0.582081,-0.169333 0.08467,-0.22225 0.127,-0.243416 0.28575,-0.497415 l -0.105833,-0.127 c -0.28575,0.09525 -0.761998,0.201083 -1.12183,0.201083 -0.137583,0.01058 -0.412749,0.02117 -0.687915,0.02117 l -3.524238,-0.09525 c -0.8360812,0 -1.0689138,0.349249 -1.1959134,1.269996 l 0.1693328,0.08467 0.084666,-0.07408 c 0.105833,-0.634998 0.5397483,-0.666748 1.1747466,-0.666748 0.127,0 0.328082,0.01058 0.560915,0.01058 -0.412749,2.412993 -0.731147,3.068502 -0.472904,4.25776 0.162073,0.701446 1.545135,0.16009 1.618621,0.03669 l -0.05347,-0.167376 C 10.105702,17.468234 11.169721,14.54947 11.391972,12.68681 l 2.074327,0.07408 c -0.05292,0.656164 -0.285749,2.571742 -0.137583,3.249073 0.232833,1.111246 0.687915,1.248829 1.02658,1.248829 0.571499,0 0.857248,-0.137583 1.449912,-0.698498 z"
           style="font-family:'TeX Gyre Pagella Math';-inkscape-font-specification:'TeX Gyre Pagella Math, Normal';fill:#808080"
           id="path31769"
           sodipodi:nodetypes="cccscccccccccccccscccccccscc" />
      </g>
    </g>
    <text
       xml:space="preserve"
       style="font-style:normal;font-weight:normal;font-size:10.5833px;line-height:1.25;font-family:sans-serif;fill:#000000;fill-opacity:1;stroke:none;stroke-width:0.264583"
       x="10.194371"
       y="7.9893661"
       id="text11951"><tspan
         sodipodi:role="line"
         id="tspan11949"
         style="stroke-width:0.264583"
         x="10.194371"
         y="7.9893661" /></text>
    <g
       id="g26377"
       transform="matrix(7.2660875,0,0,7.2660875,-8.1772178,-15.113335)">
      <g
         aria-label="Piste"
         id="text2595"
         style="font-size:3.8569px;line-height:1.25;font-family:'TeX Gyre Adventor';-inkscape-font-specification:'TeX Gyre Adventor, Normal';fill:#808080;stroke-width:0.0964224">
        <path
           d="m 10.203822,6.4116521 h 0.285411 V 5.258439 h 0.54768 c 0.775237,0 1.052933,-0.2931244 1.052933,-0.8330904 0,-0.5978195 -0.316265,-0.8639456 -1.099216,-0.8639456 H 10.203822 Z M 10.489233,5.0000267 V 3.8198153 h 0.404974 c 0.543823,0 0.906372,0.026998 0.906372,0.6055333 0,0.4126883 -0.215986,0.5746781 -0.782951,0.5746781 z"
           id="path834" />
        <path
           d="m 12.436964,6.4116521 h 0.28541 V 4.3019278 h -0.28541 z m 0,-2.3411383 h 0.28541 V 3.5845444 h -0.28541 z"
           id="path836" />
        <path
           d="m 13.034779,5.7906912 c 0,0.4088314 0.27384,0.6711006 0.678814,0.6711006 0.377976,0 0.644103,-0.269983 0.644103,-0.655673 0,-0.2584123 -0.119564,-0.4358297 -0.366406,-0.539966 -0.320123,-0.1311346 -0.33555,-0.1388484 -0.397261,-0.1697036 -0.131134,-0.065567 -0.192845,-0.154276 -0.192845,-0.2776968 0,-0.1697036 0.134992,-0.3046951 0.304695,-0.3046951 0.185132,0 0.308552,0.1079932 0.308552,0.308552 h 0.289268 c 0,-0.3394072 -0.254555,-0.5708212 -0.593963,-0.5708212 -0.343264,0 -0.597819,0.2506985 -0.597819,0.5939626 0,0.1504191 0.054,0.2815537 0.158133,0.3779762 0.08485,0.080995 0.09257,0.084852 0.389547,0.2044157 0.304695,0.1234208 0.408831,0.192845 0.408831,0.4049745 0,0.2121295 -0.150419,0.3664055 -0.354835,0.3664055 -0.235271,0 -0.39726,-0.1504191 -0.39726,-0.4088314 z"
           id="path838" />
        <path
           d="m 14.546672,4.5603401 h 0.455114 v 1.851312 h 0.285411 v -1.851312 h 0.474398 V 4.3019278 H 15.287197 V 3.561403 h -0.285411 v 0.7405248 h -0.455114 z"
           id="path840" />
        <path
           d="m 15.873435,5.3471477 c 0,0.6248178 0.489826,1.1146441 1.114644,1.1146441 0.478255,0 0.890944,-0.3432641 1.025935,-0.7443817 h -0.296981 c -0.119564,0.2892675 -0.416545,0.4821125 -0.736668,0.4821125 -0.431973,0 -0.798378,-0.3316934 -0.82152,-0.7482386 h 1.909166 c 0,-0.7482386 -0.474399,-1.1994959 -1.099217,-1.1994959 -0.613247,0 -1.095359,0.4821125 -1.095359,1.0953596 z m 0.293124,-0.154276 c 0.07714,-0.4049745 0.397261,-0.6788144 0.798378,-0.6788144 0.408832,0 0.721241,0.2584123 0.817663,0.6788144 z"
           id="path842" />
      </g>
      <g
         aria-label="# todo: insert slogan"
         id="text13703"
         style="font-size:1.41111px;line-height:1.25;font-family:'TeX Gyre Adventor';-inkscape-font-specification:'TeX Gyre Adventor, Normal';fill:#808080;stroke-width:0.0964224">
        <path
           d="m 10.203822,7.9364419 h 0.1397 l -0.0635,0.3344331 h 0.09172 l 0.0635,-0.3344331 h 0.231422 l -0.06068,0.3344331 h 0.09313 L 10.7598,7.9364419 h 0.1905 v -0.086078 h -0.173567 l 0.03951,-0.2187221 h 0.155222 v -0.086078 h -0.1397 l 0.05786,-0.3174997 h -0.09454 l -0.05645,0.3174997 h -0.230011 l 0.05786,-0.3174997 h -0.09031 L 10.4169,7.5455644 h -0.1905 v 0.086078 h 0.174978 l -0.04092,0.2187221 h -0.156634 z m 0.248356,-0.086078 0.04092,-0.2187221 h 0.230011 l -0.04092,0.2187221 z"
           id="path845" />
        <path
           d="M 11.386329,7.5935422 H 11.55284 V 8.270875 h 0.104422 V 7.5935422 h 0.173567 V 7.4989978 H 11.657262 V 7.2280647 H 11.55284 v 0.2709331 h -0.166511 z"
           id="path847" />
        <path
           d="m 11.871747,7.8799975 c 0,0.2370665 0.173567,0.4092219 0.413455,0.4092219 0.225778,0 0.392289,-0.1707443 0.392289,-0.4021664 0,-0.2356553 -0.169333,-0.4063996 -0.400755,-0.4063996 -0.2286,0 -0.404989,0.1735665 -0.404989,0.3993441 z m 0.105833,0.00282 c 0,-0.1749776 0.128411,-0.3062109 0.299156,-0.3062109 0.169333,0 0.294922,0.1326444 0.294922,0.3118554 0,0.1763887 -0.121356,0.3047997 -0.289278,0.3047997 -0.1778,0 -0.3048,-0.1298221 -0.3048,-0.3104442 z"
           id="path849" />
        <path
           d="m 12.796022,7.8856419 c 0,0.2285999 0.182034,0.4035775 0.420511,0.4035775 0.128411,0 0.2159,-0.046567 0.293511,-0.1580443 V 8.270875 h 0.104422 V 7.2280647 h -0.104422 v 0.3936997 c -0.0762,-0.091722 -0.182033,-0.141111 -0.303389,-0.141111 -0.232833,0 -0.410633,0.1749776 -0.410633,0.4049885 z m 0.105834,-0.00423 c 0,-0.1693332 0.134055,-0.3047998 0.301977,-0.3047998 0.170745,0 0.310444,0.1368777 0.310444,0.3062109 0,0.1693332 -0.135466,0.3104442 -0.300566,0.3104442 -0.176389,0 -0.311855,-0.1354665 -0.311855,-0.3118553 z"
           id="path851" />
        <path
           d="m 13.762632,7.8799975 c 0,0.2370665 0.173566,0.4092219 0.413455,0.4092219 0.225778,0 0.392289,-0.1707443 0.392289,-0.4021664 0,-0.2356553 -0.169333,-0.4063996 -0.400755,-0.4063996 -0.2286,0 -0.404989,0.1735665 -0.404989,0.3993441 z m 0.105833,0.00282 c 0,-0.1749776 0.128411,-0.3062109 0.299156,-0.3062109 0.169333,0 0.294922,0.1326444 0.294922,0.3118554 0,0.1763887 -0.121356,0.3047997 -0.289278,0.3047997 -0.1778,0 -0.3048,-0.1298221 -0.3048,-0.3104442 z"
           id="path853" />
        <path
           d="m 14.770163,8.270875 h 0.104422 V 8.0930751 h -0.104422 z m 0,-0.5376329 h 0.104422 V 7.5554422 h -0.104422 z"
           id="path855" />
        <path
           d="m 15.498291,8.270875 h 0.104422 V 7.4989978 h -0.104422 z m 0,-0.8565438 h 0.104422 V 7.2365313 h -0.104422 z"
           id="path857" />
        <path
           d="m 15.780512,8.270875 h 0.104422 V 7.8461309 c 0,-0.1890888 0.09596,-0.2695221 0.235655,-0.2695221 0.142522,0 0.238478,0.079022 0.238478,0.2892776 V 8.270875 h 0.104422 V 7.8658864 c 0,-0.2709331 -0.136878,-0.385233 -0.3302,-0.385233 -0.1016,0 -0.183444,0.039511 -0.248355,0.1185332 V 7.4989978 h -0.104422 z"
           id="path859" />
        <path
           d="m 16.577787,8.0436863 c 0,0.1495776 0.100189,0.2455331 0.248356,0.2455331 0.138288,0 0.235655,-0.098778 0.235655,-0.2398887 0,-0.094544 -0.04374,-0.1594554 -0.134055,-0.1975554 -0.117123,-0.047978 -0.122767,-0.0508 -0.145345,-0.062089 -0.04798,-0.023989 -0.07056,-0.056444 -0.07056,-0.1016 0,-0.062089 0.04939,-0.1114777 0.111477,-0.1114777 0.06773,0 0.112889,0.039511 0.112889,0.1128888 h 0.105833 c 0,-0.1241776 -0.09313,-0.2088442 -0.217311,-0.2088442 -0.125588,0 -0.218722,0.091722 -0.218722,0.2173109 0,0.055033 0.01976,0.103011 0.05786,0.1382888 0.03104,0.029633 0.03387,0.031044 0.142522,0.074789 0.111478,0.045155 0.149578,0.070556 0.149578,0.1481666 0,0.077611 -0.05503,0.1340554 -0.129822,0.1340554 -0.08608,0 -0.145345,-0.055033 -0.145345,-0.1495776 z"
           id="path861" />
        <path
           d="m 17.159163,7.8814086 c 0,0.2285998 0.179211,0.4078108 0.40781,0.4078108 0.174978,0 0.325967,-0.1255888 0.375356,-0.2723442 h -0.108656 c -0.04374,0.1058332 -0.1524,0.1763887 -0.269522,0.1763887 -0.158044,0 -0.2921,-0.1213554 -0.300566,-0.2737553 h 0.698499 c 0,-0.2737554 -0.173566,-0.4388552 -0.402166,-0.4388552 -0.224367,0 -0.400755,0.1763887 -0.400755,0.4007552 z m 0.107244,-0.056444 c 0.02822,-0.1481666 0.145344,-0.2483554 0.2921,-0.2483554 0.149577,0 0.263877,0.094544 0.299155,0.2483554 z"
           id="path863" />
        <path
           d="m 18.106017,8.270875 h 0.104422 V 7.8207309 c 0,-0.1439333 0.07338,-0.2229554 0.218722,-0.2370665 v -0.103011 c -0.111478,0.00564 -0.1778,0.043744 -0.218722,0.128411 V 7.4989978 h -0.104422 z"
           id="path865" />
        <path
           d="m 18.501124,7.5935422 h 0.166511 V 8.270875 h 0.104422 V 7.5935422 h 0.173567 V 7.4989978 H 18.772057 V 7.2280647 h -0.104422 v 0.2709331 h -0.166511 z"
           id="path867" />
        <path
           d="m 19.378831,8.0436863 c 0,0.1495776 0.100189,0.2455331 0.248355,0.2455331 0.138289,0 0.235655,-0.098778 0.235655,-0.2398887 0,-0.094544 -0.04374,-0.1594554 -0.134055,-0.1975554 -0.117122,-0.047978 -0.122767,-0.0508 -0.145344,-0.062089 -0.04798,-0.023989 -0.07056,-0.056444 -0.07056,-0.1016 0,-0.062089 0.04939,-0.1114777 0.111478,-0.1114777 0.06773,0 0.112889,0.039511 0.112889,0.1128888 h 0.105833 c 0,-0.1241776 -0.09313,-0.2088442 -0.217311,-0.2088442 -0.125589,0 -0.218722,0.091722 -0.218722,0.2173109 0,0.055033 0.01975,0.103011 0.05785,0.1382888 0.03104,0.029633 0.03387,0.031044 0.142523,0.074789 0.111477,0.045155 0.149577,0.070556 0.149577,0.1481666 0,0.077611 -0.05503,0.1340554 -0.129822,0.1340554 -0.08608,0 -0.145344,-0.055033 -0.145344,-0.1495776 z"
           id="path869" />
        <path
           d="m 19.98984,8.270875 h 0.104422 V 7.2280647 H 19.98984 Z"
           id="path871" />
        <path
           d="m 20.242426,7.8799975 c 0,0.2370665 0.173567,0.4092219 0.413456,0.4092219 0.225777,0 0.392288,-0.1707443 0.392288,-0.4021664 0,-0.2356553 -0.169333,-0.4063996 -0.400755,-0.4063996 -0.2286,0 -0.404989,0.1735665 -0.404989,0.3993441 z m 0.105834,0.00282 c 0,-0.1749776 0.128411,-0.3062109 0.299155,-0.3062109 0.169333,0 0.294922,0.1326444 0.294922,0.3118554 0,0.1763887 -0.121355,0.3047997 -0.289278,0.3047997 -0.177799,0 -0.304799,-0.1298221 -0.304799,-0.3104442 z"
           id="path873" />
        <path
           d="m 21.166702,7.8884642 c 0,0.2257776 0.176389,0.4007552 0.402166,0.4007552 0.138289,0 0.234244,-0.056444 0.294922,-0.1749776 v 0.052211 c 0,0.2031999 -0.09737,0.3118554 -0.283633,0.3118554 -0.129822,0 -0.204611,-0.043745 -0.283633,-0.1834444 h -0.1016 c 0.05644,0.1806221 0.193322,0.2793998 0.388055,0.2793998 0.134056,0 0.246945,-0.0508 0.313267,-0.1382887 0.05221,-0.070555 0.07197,-0.1523999 0.07197,-0.3033887 V 7.4989978 H 21.86379 v 0.1368777 c -0.07761,-0.1058333 -0.172155,-0.1552221 -0.301977,-0.1552221 -0.225778,0 -0.395111,0.1749776 -0.395111,0.4078108 z m 0.105833,-0.00847 c 0,-0.1763888 0.124178,-0.3033887 0.294922,-0.3033887 0.166511,0 0.296333,0.1312333 0.296333,0.2991554 0,0.1806221 -0.127,0.3174997 -0.294922,0.3174997 -0.169333,0 -0.296333,-0.1340554 -0.296333,-0.3132664 z"
           id="path875" />
        <path
           d="m 22.116376,7.887053 c 0,0.230011 0.176389,0.4021664 0.413456,0.4021664 0.131233,0 0.2159,-0.043744 0.297744,-0.153811 V 8.270875 h 0.104422 V 7.4989978 h -0.104422 v 0.1368777 c -0.0762,-0.1072444 -0.170744,-0.1552221 -0.3048,-0.1552221 -0.231422,0 -0.4064,0.1749776 -0.4064,0.4063996 z m 0.105834,-0.00706 c 0,-0.1679221 0.135466,-0.3033887 0.303388,-0.3033887 0.169334,0 0.301978,0.1326444 0.301978,0.3047998 0,0.1749777 -0.129822,0.3118553 -0.296333,0.3118553 -0.174978,0 -0.309033,-0.1368776 -0.309033,-0.3132664 z"
           id="path877" />
        <path
           d="m 23.109796,8.270875 h 0.104422 V 7.8461309 c 0,-0.1890888 0.09596,-0.2695221 0.235655,-0.2695221 0.142523,0 0.238478,0.079022 0.238478,0.2892776 V 8.270875 h 0.104422 V 7.8658864 c 0,-0.2709331 -0.136878,-0.385233 -0.3302,-0.385233 -0.1016,0 -0.183444,0.039511 -0.248355,0.1185332 V 7.4989978 h -0.104422 z"
           id="path879" />
      </g>
    </g>
  </g>
</svg>
